<?xml version="1.0" encoding="utf-8"?>
<!-- Generator: Adobe Illustrator 15.0.0, SVG Export Plug-In . SVG Version: 6.00 Build 0)  -->
<!DOCTYPE svg PUBLIC "-//W3C//DTD SVG 1.1//EN" "http://www.w3.org/Graphics/SVG/1.1/DTD/svg11.dtd">
<svg version="1.1" id="Layer_1" xmlns="http://www.w3.org/2000/svg" xmlns:xlink="http://www.w3.org/1999/xlink" x="0px" y="0px"
	 width="100px" height="100px" viewBox="0 0 100 100" enable-background="new 0 0 100 100" xml:space="preserve">
<g>
	<g>
		<g>
			<g>
				<path d="M34.951,47.134c0.114-0.584,0.43-1.031,0.945-1.337c0.498-0.294,1.04-0.382,1.631-0.267
					c0.614,0.12,1.097,0.414,1.45,0.881c0.369,0.486,0.493,1.033,0.375,1.64c-0.121,0.618-0.438,1.078-0.951,1.379
					c-0.49,0.289-1.048,0.372-1.673,0.25c-0.67-0.132-1.172-0.468-1.505-1.009C34.935,48.199,34.844,47.687,34.951,47.134z
					 M35.167,47.238c-0.074,0.379,0.007,0.71,0.241,0.996c0.293,0.354,0.776,0.595,1.448,0.726c0.69,0.135,1.248,0.092,1.676-0.13
					c0.325-0.169,0.524-0.442,0.598-0.815c0.097-0.493-0.042-0.9-0.415-1.217c-0.295-0.252-0.709-0.431-1.243-0.535
					c-0.565-0.111-1.036-0.111-1.413-0.002C35.564,46.402,35.266,46.727,35.167,47.238z"/>
				<path d="M39.569,38.807l0.504-0.347l3.181,1.901l-0.63-3.652l0.504-0.347l2.424,3.564l-0.502,0.344l-2.04-2.999l0.671,3.936
					l-0.086,0.061l-3.412-2.057l2.04,2.998l-0.23,0.158L39.569,38.807z"/>
				<path d="M50.814,34.886l0.315,0.054l2.062,3.625l0.529-3.191l0.275,0.047l-0.719,4.323l-0.113-0.018l-2.226-3.894l-0.558,3.356
					l-0.275-0.045L50.814,34.886z"/>
				<path d="M57.725,42.634l-0.431-0.431l3.033-3.057l0.431,0.431L57.725,42.634z"/>
			</g>
		</g>
		<g>
			<g>
				<path d="M38.477,59.93l-1.634-2.172l3.427-2.595l0.371,0.486l-2.821,2.136c-0.142,0.107-0.228,0.193-0.258,0.258
					c-0.034,0.074-0.012,0.176,0.067,0.304c0.007,0.012,0.073,0.099,0.197,0.266l0.922,1.223L38.477,59.93z"/>
				<path d="M44.647,63.931l-0.571-0.214l1.5-4.043l0.569,0.212L44.647,63.931z"/>
				<path d="M50.739,60.527l0.312-0.079l3.331,2.499l-0.784-3.141l0.271-0.065l1.062,4.251l-0.11,0.03l-3.59-2.679l0.824,3.301
					l-0.271,0.068L50.739,60.527z"/>
				<path d="M62.48,57.221c-0.081,0.399-0.22,0.742-0.413,1.022c-0.405,0.588-0.937,0.893-1.594,0.915
					c-0.489,0.015-0.953-0.128-1.39-0.433c-0.354-0.245-0.622-0.549-0.807-0.91c-0.186-0.363-0.264-0.739-0.238-1.129
					c0.026-0.391,0.156-0.751,0.386-1.089c0.185-0.264,0.405-0.454,0.66-0.57c0.309-0.135,0.683-0.184,1.119-0.143l-0.003,0.117
					c-0.438,0.008-0.767,0.067-0.984,0.175c-0.226,0.11-0.418,0.282-0.575,0.511c-0.163,0.235-0.249,0.489-0.263,0.761
					c-0.024,0.587,0.35,1.15,1.12,1.684c0.32,0.222,0.635,0.364,0.94,0.424c0.306,0.062,0.596,0.031,0.868-0.093
					c0.261-0.118,0.483-0.308,0.665-0.574c0.121-0.177,0.204-0.492,0.248-0.946l-0.813-0.565c-0.072-0.05-0.113-0.072-0.127-0.069
					c-0.013,0.004-0.026,0.007-0.041,0.011c-0.148-0.022-0.303,0.081-0.46,0.31l-0.309-0.214l0.677-0.98l1.406,0.973
					C62.52,56.772,62.494,57.042,62.48,57.221z"/>
				<path d="M60.27,48.343c-0.069-0.593,0.098-1.114,0.496-1.564c0.385-0.43,0.875-0.68,1.475-0.75
					c0.62-0.071,1.17,0.062,1.646,0.399c0.499,0.35,0.781,0.833,0.854,1.448c0.072,0.626-0.092,1.158-0.488,1.604
					c-0.382,0.422-0.889,0.674-1.52,0.746c-0.678,0.078-1.259-0.089-1.739-0.502C60.576,49.362,60.334,48.903,60.27,48.343z
					 M60.506,48.375c0.044,0.383,0.221,0.675,0.532,0.874c0.385,0.248,0.919,0.333,1.599,0.253c0.699-0.081,1.217-0.292,1.557-0.635
					c0.259-0.262,0.367-0.583,0.324-0.959c-0.058-0.502-0.313-0.845-0.764-1.034c-0.357-0.15-0.807-0.195-1.345-0.131
					c-0.574,0.065-1.024,0.208-1.35,0.428C60.631,47.457,60.447,47.859,60.506,48.375z"/>
			</g>
		</g>
	</g>
	<g>
		<g>
			<g>
				<path d="M19.603,44.534c0.233-1.195,0.878-2.109,1.934-2.735c1.016-0.601,2.127-0.782,3.336-0.545
					c1.255,0.248,2.243,0.849,2.964,1.805c0.753,0.99,1.008,2.11,0.766,3.351c-0.247,1.265-0.896,2.205-1.944,2.82
					c-1.004,0.589-2.144,0.759-3.421,0.507c-1.369-0.269-2.395-0.956-3.076-2.063C19.567,46.711,19.382,45.668,19.603,44.534z
					 M20.043,44.747c-0.151,0.774,0.015,1.454,0.495,2.034c0.599,0.723,1.585,1.22,2.958,1.49c1.413,0.279,2.556,0.188,3.427-0.268
					c0.667-0.346,1.075-0.902,1.225-1.67c0.197-1.008-0.087-1.836-0.85-2.486c-0.603-0.517-1.449-0.882-2.539-1.095
					c-1.157-0.231-2.121-0.231-2.892-0.006C20.854,43.038,20.246,43.704,20.043,44.747z"/>
				<path d="M28.77,27.762l1.021-0.723l6.549,3.812l-1.375-7.453l1.021-0.72l5.045,7.226l-1.021,0.717l-4.243-6.081l1.468,8.033
					l-0.176,0.123l-7.023-4.122l4.243,6.078l-0.468,0.33L28.77,27.762z"/>
				<path d="M51.304,19.453l0.648,0.092l4.39,7.312l0.929-6.55l0.565,0.082l-1.261,8.876l-0.231-0.033l-4.737-7.854l-0.978,6.889
					l-0.565-0.08L51.304,19.453z"/>
				<path d="M65.599,34.753l-0.913-0.849l5.97-6.474l0.913,0.848L65.599,34.753z"/>
			</g>
		</g>
		<g>
			<g>
				<path d="M26.778,70.67l-3.332-4.447l7.014-5.295l0.759,0.988l-5.775,4.362c-0.29,0.22-0.466,0.395-0.528,0.529
					c-0.07,0.151-0.026,0.36,0.134,0.622c0.017,0.022,0.151,0.204,0.406,0.542l1.877,2.507L26.778,70.67z"/>
				<path d="M38.924,78.701l-1.158-0.458l3.206-8.214l1.159,0.458L38.924,78.701z"/>
				<path d="M51.112,71.985l0.64-0.137l6.631,5.343l-1.376-6.471l0.557-0.12l1.867,8.77l-0.229,0.05l-7.144-5.734l1.448,6.808
					l-0.558,0.118L51.112,71.985z"/>
				<path d="M75.062,66.501c-0.207,0.809-0.525,1.492-0.951,2.047c-0.891,1.159-2.008,1.724-3.352,1.694
					c-1-0.018-1.93-0.361-2.793-1.03c-0.694-0.538-1.211-1.186-1.551-1.944c-0.339-0.76-0.461-1.537-0.365-2.331
					c0.095-0.795,0.396-1.523,0.901-2.182c0.404-0.526,0.875-0.891,1.409-1.096c0.646-0.244,1.413-0.304,2.301-0.174l-0.02,0.241
					c-0.895-0.029-1.568,0.054-2.028,0.253c-0.473,0.204-0.882,0.53-1.228,0.98c-0.356,0.461-0.563,0.971-0.617,1.525
					c-0.111,1.199,0.592,2.383,2.11,3.561c0.63,0.49,1.254,0.811,1.873,0.966c0.619,0.157,1.214,0.125,1.782-0.099
					c0.545-0.213,1.019-0.579,1.422-1.101c0.266-0.347,0.467-0.983,0.604-1.906l-1.601-1.241c-0.139-0.107-0.224-0.158-0.249-0.153
					c-0.028,0.007-0.057,0.013-0.087,0.017c-0.303-0.061-0.629,0.132-0.974,0.583l-0.605-0.469l1.485-1.931l2.77,2.138
					C75.189,65.59,75.111,66.139,75.062,66.501z"/>
				<path d="M71.5,48.488c-0.058-1.217,0.353-2.257,1.229-3.12c0.843-0.826,1.88-1.267,3.109-1.327
					c1.279-0.061,2.38,0.286,3.307,1.041c0.968,0.783,1.479,1.808,1.54,3.073c0.061,1.287-0.344,2.354-1.217,3.205
					c-0.836,0.812-1.904,1.25-3.202,1.311c-1.394,0.067-2.554-0.356-3.48-1.268C71.982,50.612,71.555,49.64,71.5,48.488z
					 M71.979,48.59c0.037,0.789,0.358,1.407,0.964,1.856c0.753,0.559,1.828,0.806,3.227,0.739c1.438-0.07,2.525-0.428,3.265-1.08
					c0.564-0.497,0.83-1.136,0.792-1.917c-0.048-1.024-0.52-1.762-1.415-2.211c-0.708-0.356-1.617-0.507-2.728-0.456
					c-1.177,0.056-2.114,0.287-2.809,0.687C72.36,46.736,71.929,47.53,71.979,48.59z"/>
			</g>
		</g>
	</g>
	<g>
		<g>
			<path d="M0.162,40.896c0.406-2.016,1.504-3.548,3.291-4.595c1.719-1.002,3.597-1.297,5.633-0.881
				c2.115,0.429,3.774,1.453,4.981,3.072c1.259,1.681,1.677,3.57,1.256,5.664c-0.43,2.129-1.533,3.708-3.31,4.737
				c-1.701,0.983-3.626,1.258-5.777,0.821c-2.307-0.471-4.03-1.641-5.169-3.515C0.079,44.571-0.224,42.803,0.162,40.896z
				 M0.902,41.259c-0.263,1.307,0.008,2.452,0.812,3.436c1.003,1.226,2.661,2.074,4.977,2.544c2.379,0.486,4.307,0.346,5.784-0.412
				c1.127-0.579,1.822-1.513,2.082-2.804c0.342-1.7-0.125-3.101-1.404-4.206c-1.013-0.877-2.439-1.503-4.274-1.875
				c-1.951-0.397-3.576-0.411-4.878-0.041C2.289,38.384,1.257,39.501,0.902,41.259z"/>
			<path d="M16.167,12.666l1.754-1.175l10.86,6.746L26.819,5.601l1.756-1.162l8.161,12.428l-1.755,1.16L28.117,7.57l2.09,13.617
				l-0.301,0.199l-11.648-7.292l6.865,10.457l-0.804,0.532L16.167,12.666z"/>
			<path d="M54.815,0l1.084,0.21l6.777,12.694l2.119-10.958l0.945,0.184l-2.873,14.849l-0.388-0.074L55.162,3.268l-2.229,11.528
				l-0.944-0.186L54.815,0z"/>
			<path d="M77.376,27.086l-1.443-1.527L86.694,15.32l1.444,1.531L77.376,27.086z"/>
		</g>
	</g>
	<g>
		<g>
			<path d="M12.552,84.316l-5.641-7.484l11.805-8.969l1.285,1.668l-9.723,7.385c-0.486,0.371-0.784,0.668-0.888,0.896
				c-0.119,0.255-0.042,0.605,0.229,1.052c0.027,0.034,0.255,0.336,0.686,0.91l3.181,4.218L12.552,84.316z"/>
			<path d="M33.351,97.554l-1.973-0.72l5.066-13.989l1.973,0.722L33.351,97.554z"/>
			<path d="M53.383,85.599l1.068-0.281l11.579,8.502l-2.809-10.802l0.932-0.243l3.806,14.634l-0.382,0.102l-12.472-9.117
				l2.954,11.36L57.128,100L53.383,85.599z"/>
			<path d="M93.029,74.093c-0.253,1.387-0.707,2.574-1.359,3.562c-1.36,2.054-3.173,3.137-5.437,3.251
				c-1.686,0.086-3.293-0.378-4.823-1.4c-1.232-0.818-2.18-1.85-2.84-3.086c-0.66-1.236-0.958-2.528-0.892-3.877
				c0.064-1.348,0.486-2.609,1.26-3.779c0.618-0.932,1.365-1.603,2.238-2.011c1.059-0.489,2.344-0.677,3.854-0.565l-0.006,0.404
				c-1.509,0.056-2.635,0.279-3.383,0.668c-0.772,0.399-1.423,0.998-1.951,1.796c-0.545,0.822-0.831,1.704-0.857,2.643
				c-0.046,2.025,1.279,3.939,3.974,5.738c1.118,0.744,2.206,1.21,3.267,1.399c1.061,0.19,2.056,0.064,2.988-0.378
				c0.893-0.423,1.646-1.098,2.26-2.025c0.407-0.616,0.672-1.707,0.792-3.279l-2.84-1.896c-0.25-0.165-0.396-0.241-0.44-0.228
				c-0.045,0.014-0.091,0.029-0.143,0.038c-0.517-0.064-1.04,0.302-1.569,1.102l-1.075-0.718l2.27-3.426l4.915,3.264
				C93.136,72.544,93.069,73.478,93.029,74.093z"/>
			<path d="M84.541,44.46c-0.289-2.036,0.232-3.847,1.568-5.437c1.286-1.522,2.957-2.43,5.014-2.725
				c2.136-0.305,4.041,0.1,5.718,1.223c1.748,1.16,2.772,2.798,3.073,4.914c0.307,2.15-0.206,4.01-1.537,5.575
				c-1.274,1.499-2.997,2.403-5.17,2.714c-2.331,0.335-4.346-0.189-6.044-1.573C85.688,47.95,84.815,46.386,84.541,44.46z
				 M85.359,44.554c0.188,1.317,0.826,2.307,1.914,2.963c1.353,0.818,3.199,1.06,5.537,0.724c2.402-0.344,4.173-1.123,5.312-2.334
				c0.87-0.923,1.213-2.036,1.026-3.34c-0.243-1.717-1.153-2.881-2.728-3.491c-1.247-0.485-2.797-0.597-4.652-0.331
				c-1.971,0.283-3.506,0.818-4.609,1.604C85.708,41.376,85.108,42.778,85.359,44.554z"/>
		</g>
	</g>
</g>
</svg>
