<?xml version="1.0" encoding="utf-8"?>
<!-- Generator: Adobe Illustrator 15.0.0, SVG Export Plug-In . SVG Version: 6.00 Build 0)  -->
<!DOCTYPE svg PUBLIC "-//W3C//DTD SVG 1.1//EN" "http://www.w3.org/Graphics/SVG/1.1/DTD/svg11.dtd">
<svg version="1.1" id="Layer_1" xmlns="http://www.w3.org/2000/svg" xmlns:xlink="http://www.w3.org/1999/xlink" x="0px" y="0px"
	 width="100px" height="100px" viewBox="0 0 100 100" enable-background="new 0 0 100 100" xml:space="preserve">
<g>
	<g>
		<g>
			<path d="M0.162,40.896c0.406-2.016,1.504-3.549,3.291-4.595c1.719-1.003,3.596-1.298,5.633-0.882
				c2.115,0.43,3.775,1.453,4.98,3.073c1.26,1.681,1.678,3.569,1.256,5.663c-0.43,2.129-1.533,3.708-3.309,4.736
				c-1.701,0.983-3.627,1.258-5.777,0.822c-2.307-0.472-4.031-1.642-5.17-3.516C0.08,44.571-0.223,42.803,0.162,40.896z
				 M0.902,41.26c-0.264,1.306,0.008,2.451,0.812,3.436c1.004,1.226,2.662,2.074,4.977,2.544c2.379,0.485,4.307,0.346,5.783-0.413
				c1.127-0.578,1.822-1.512,2.084-2.803c0.342-1.7-0.127-3.102-1.406-4.206c-1.012-0.877-2.438-1.503-4.273-1.874
				C6.928,37.545,5.303,37.531,4,37.902C2.289,38.385,1.256,39.502,0.902,41.26z"/>
			<path d="M16.166,12.666l1.754-1.176l10.861,6.746L26.818,5.601l1.756-1.161l8.16,12.428l-1.752,1.159L28.115,7.57l2.092,13.617
				l-0.301,0.198l-11.648-7.292l6.865,10.457l-0.803,0.532L16.166,12.666z"/>
			<path d="M54.814,0l1.084,0.21l6.777,12.694l2.119-10.957l0.947,0.184l-2.873,14.849l-0.389-0.073L55.162,3.268l-2.23,11.527
				l-0.943-0.185L54.814,0z"/>
			<path d="M77.377,27.086l-1.445-1.527L86.693,15.32l1.445,1.531L77.377,27.086z"/>
		</g>
	</g>
	<g>
		<g>
			<path d="M12.551,84.316L6.91,76.832l11.805-8.969L20,69.531l-9.723,7.385c-0.486,0.371-0.783,0.668-0.887,0.896
				c-0.119,0.255-0.041,0.604,0.229,1.051c0.027,0.035,0.256,0.337,0.686,0.91l3.182,4.219L12.551,84.316z"/>
			<path d="M33.35,97.555l-1.973-0.721l5.066-13.988l1.973,0.722L33.35,97.555z"/>
			<path d="M53.383,85.6l1.068-0.281l11.578,8.502L63.221,83.02l0.932-0.244l3.807,14.635l-0.383,0.102l-12.471-9.117l2.953,11.361
				L57.129,100L53.383,85.6z"/>
			<path d="M93.029,74.094c-0.254,1.387-0.707,2.574-1.359,3.561c-1.359,2.054-3.174,3.137-5.438,3.252
				c-1.686,0.086-3.293-0.378-4.822-1.4c-1.232-0.818-2.18-1.851-2.84-3.086c-0.66-1.236-0.959-2.528-0.893-3.877
				s0.486-2.609,1.262-3.779c0.617-0.933,1.363-1.603,2.238-2.012c1.059-0.488,2.342-0.677,3.854-0.564l-0.006,0.404
				c-1.51,0.057-2.637,0.279-3.383,0.668c-0.771,0.398-1.422,0.998-1.951,1.796c-0.545,0.821-0.832,1.704-0.857,2.643
				c-0.045,2.026,1.279,3.94,3.975,5.739c1.117,0.744,2.205,1.209,3.266,1.398c1.061,0.19,2.057,0.064,2.988-0.378
				c0.893-0.423,1.646-1.098,2.26-2.024c0.406-0.616,0.672-1.708,0.791-3.279l-2.84-1.896c-0.25-0.165-0.395-0.242-0.439-0.229
				c-0.045,0.016-0.09,0.029-0.143,0.038c-0.518-0.063-1.041,0.302-1.57,1.102l-1.074-0.718l2.27-3.426l4.916,3.264
				C93.137,72.544,93.068,73.479,93.029,74.094z"/>
			<path d="M84.541,44.46c-0.289-2.036,0.232-3.847,1.568-5.437c1.285-1.522,2.957-2.43,5.014-2.725
				c2.135-0.305,4.041,0.1,5.717,1.222c1.748,1.161,2.773,2.799,3.074,4.915c0.307,2.15-0.207,4.01-1.537,5.574
				c-1.273,1.499-2.998,2.403-5.17,2.714c-2.33,0.335-4.346-0.188-6.045-1.573C85.688,47.95,84.814,46.386,84.541,44.46z
				 M85.359,44.554c0.188,1.317,0.826,2.307,1.914,2.964c1.352,0.818,3.199,1.059,5.537,0.724c2.402-0.345,4.174-1.122,5.311-2.335
				c0.871-0.923,1.213-2.035,1.027-3.34c-0.244-1.717-1.152-2.881-2.729-3.491c-1.246-0.485-2.795-0.597-4.65-0.331
				c-1.973,0.283-3.508,0.818-4.611,1.604C85.707,41.377,85.107,42.777,85.359,44.554z"/>
		</g>
	</g>
</g>
</svg>
